<?xml version="1.0" encoding="utf-8"?>
<!-- Generator: Adobe Illustrator 18.1.1, SVG Export Plug-In . SVG Version: 6.00 Build 0)  -->
<svg version="1.1" id="Layer_1" xmlns="http://www.w3.org/2000/svg" xmlns:xlink="http://www.w3.org/1999/xlink" x="0px" y="0px"
	 viewBox="0 0 177.2 268.5" enable-background="new 0 0 177.2 268.5" xml:space="preserve">
<polygon fill="#F68F62" stroke="#000000" stroke-width="5" stroke-miterlimit="10" points="165.1,12.7 165.4,176.6 92.7,257.3 
	14.6,177.2 15.5,12.7 "/>
<g>
	<line fill="none" stroke="#000000" stroke-width="9" stroke-miterlimit="10" x1="39.2" y1="191.6" x2="39.2" y2="116.3"/>
	<line fill="none" stroke="#000000" stroke-width="9" stroke-miterlimit="10" x1="143.2" y1="116.3" x2="143.2" y2="191.6"/>
	<g>
		<line fill="none" stroke="#000000" stroke-width="4" stroke-miterlimit="10" x1="14.8" y1="127" x2="165.3" y2="127"/>
		<line fill="none" stroke="#000000" stroke-miterlimit="10" x1="14.8" y1="116.3" x2="165.4" y2="116.3"/>
		<path fill="none" stroke="#000000" stroke-width="3" stroke-miterlimit="10" d="M36.1,117.5c0,0,52.5-48,109.2,0"/>
		<path fill="none" stroke="#000000" stroke-width="3" stroke-miterlimit="10" d="M42.6,145c0,0,44.7-98,98,0"/>
		<line fill="none" stroke="#000000" stroke-miterlimit="10" x1="24.6" y1="116.3" x2="24.6" y2="176.7"/>
		<line fill="none" stroke="#000000" stroke-miterlimit="10" x1="155.2" y1="116.3" x2="155.2" y2="173.5"/>
		<line fill="none" stroke="#000000" stroke-miterlimit="10" x1="51.6" y1="116.3" x2="51.6" y2="127"/>
		<line fill="none" stroke="#000000" stroke-miterlimit="10" x1="60.6" y1="116.3" x2="60.6" y2="127"/>
		<line fill="none" stroke="#000000" stroke-miterlimit="10" x1="70.2" y1="116.3" x2="70.2" y2="127"/>
		<line fill="none" stroke="#000000" stroke-miterlimit="10" x1="78.6" y1="116.3" x2="78.6" y2="127"/>
		<line fill="none" stroke="#000000" stroke-miterlimit="10" x1="88.6" y1="116.3" x2="88.6" y2="127"/>
		<line fill="none" stroke="#000000" stroke-miterlimit="10" x1="97.2" y1="116.3" x2="97.2" y2="127"/>
		<line fill="none" stroke="#000000" stroke-miterlimit="10" x1="105.9" y1="116.3" x2="105.9" y2="127"/>
		<line fill="none" stroke="#000000" stroke-miterlimit="10" x1="115.6" y1="116.3" x2="115.6" y2="127"/>
		<line fill="none" stroke="#000000" stroke-miterlimit="10" x1="123.9" y1="116.3" x2="123.9" y2="127"/>
		<line fill="none" stroke="#000000" stroke-miterlimit="10" x1="132.2" y1="116.3" x2="132.2" y2="127"/>
		<polyline fill="none" stroke="#000000" stroke-miterlimit="10" points="47.3,136.3 47.3,109.8 58.9,119.9 58.9,102.8 67.6,111.3 
			67.6,99.2 75.8,105.7 75.8,97.7 81.2,101.4 83.6,95.4 88.6,101.4 91.6,95.4 94.9,101.4 99.7,95.6 102.7,103.6 108.8,97.4 
			108.8,106.7 118.6,101.4 118.6,114.4 130,106.7 130,127 140.6,114.1 		"/>
	</g>
</g>
<rect x="18.2" y="30.9" fill="#FFFFFF" stroke="#FFFFFF" stroke-miterlimit="10" width="146.4" height="46.7"/>
<g>
	<g>
		<g>
			<polyline fill="#58595B" stroke="#FFFFFF" stroke-miterlimit="10" points="92.4,21.5 88.3,37.9 88.3,44.2 85.2,50.5 85.2,59.5 
				81.9,64.9 81.9,69.2 80.6,71.9 80.6,79.5 76.2,79.5 76.2,151.2 67.2,150.2 48.2,145.9 37.2,149.5 20.6,146.9 14.6,155.9 
				14.6,177.2 62.9,225.2 121.6,225.2 165.4,176.6 164.9,159.5 164.7,146.9 148.1,149.5 137.1,145.9 118.1,150.2 109.1,151.2 
				109.1,79.5 104.7,79.5 104.7,71.9 103.4,69.2 103.4,64.9 100.1,59.5 100.1,50.5 97,44.2 97,37.9 93,21.5 			"/>
			<polygon fill="#58595B" stroke="#FFFFFF" stroke-miterlimit="10" points="80.6,79.5 104.7,79.5 109.1,79.5 109.1,83.4 76.2,83.4 
				76.2,79.5 			"/>
			<path fill="#58595B" stroke="#FFFFFF" stroke-miterlimit="10" d="M85.2,50.5c0,0,6.5-3.5,14.8,0"/>
			<path fill="#58595B" stroke="#FFFFFF" stroke-miterlimit="10" d="M85.2,59.5c0,0,7.5-2.2,14.8,0"/>
			<path fill="#58595B" stroke="#FFFFFF" stroke-miterlimit="10" d="M88.3,44.2c0,0,3.3-1.3,8.7,0"/>
			<path fill="#58595B" stroke="#FFFFFF" stroke-miterlimit="10" d="M88.3,37.9c0,0,2.8-3,8.7,0"/>
			<polygon fill="#58595B" stroke="#FFFFFF" stroke-miterlimit="10" points="81.9,69.2 103.4,69.2 104.7,71.9 80.6,71.9 			"/>
			<line fill="#58595B" stroke="#FFFFFF" stroke-miterlimit="10" x1="76.2" y1="102" x2="109.1" y2="102"/>
			<g>
				<line fill="#58595B" x1="85.7" y1="103.5" x2="85.7" y2="183"/>
				<g>
					<line fill="none" stroke="#FFFFFF" stroke-miterlimit="10" x1="85.7" y1="103.5" x2="85.7" y2="104.5"/>
					
						<line fill="none" stroke="#FFFFFF" stroke-miterlimit="10" stroke-dasharray="1.9872,1.9872" x1="85.7" y1="106.5" x2="85.7" y2="181.1"/>
					<line fill="none" stroke="#FFFFFF" stroke-miterlimit="10" x1="85.7" y1="182" x2="85.7" y2="183"/>
				</g>
			</g>
			<g>
				<line fill="#58595B" x1="89.2" y1="103.5" x2="89.2" y2="183"/>
				<g>
					<line fill="none" stroke="#FFFFFF" stroke-miterlimit="10" x1="89.2" y1="103.5" x2="89.2" y2="104.5"/>
					
						<line fill="none" stroke="#FFFFFF" stroke-miterlimit="10" stroke-dasharray="1.9872,1.9872" x1="89.2" y1="106.5" x2="89.2" y2="181.1"/>
					<line fill="none" stroke="#FFFFFF" stroke-miterlimit="10" x1="89.2" y1="182" x2="89.2" y2="183"/>
				</g>
			</g>
			<g>
				<line fill="#58595B" x1="92.9" y1="103.5" x2="92.9" y2="183"/>
				<g>
					<line fill="none" stroke="#FFFFFF" stroke-miterlimit="10" x1="92.9" y1="103.5" x2="92.9" y2="104.5"/>
					
						<line fill="none" stroke="#FFFFFF" stroke-miterlimit="10" stroke-dasharray="1.9872,1.9872" x1="92.9" y1="106.5" x2="92.9" y2="181.1"/>
					<line fill="none" stroke="#FFFFFF" stroke-miterlimit="10" x1="92.9" y1="182" x2="92.9" y2="183"/>
				</g>
			</g>
			<g>
				<line fill="#58595B" x1="96.7" y1="103.5" x2="96.7" y2="183"/>
				<g>
					<line fill="none" stroke="#FFFFFF" stroke-miterlimit="10" x1="96.7" y1="103.5" x2="96.7" y2="104.5"/>
					
						<line fill="none" stroke="#FFFFFF" stroke-miterlimit="10" stroke-dasharray="1.9872,1.9872" x1="96.7" y1="106.5" x2="96.7" y2="181.1"/>
					<line fill="none" stroke="#FFFFFF" stroke-miterlimit="10" x1="96.7" y1="182" x2="96.7" y2="183"/>
				</g>
			</g>
			<g>
				<line fill="#58595B" x1="99.7" y1="103.5" x2="99.7" y2="183"/>
				<g>
					<line fill="none" stroke="#FFFFFF" stroke-miterlimit="10" x1="99.7" y1="103.5" x2="99.7" y2="104.5"/>
					
						<line fill="none" stroke="#FFFFFF" stroke-miterlimit="10" stroke-dasharray="1.9872,1.9872" x1="99.7" y1="106.5" x2="99.7" y2="181.1"/>
					<line fill="none" stroke="#FFFFFF" stroke-miterlimit="10" x1="99.7" y1="182" x2="99.7" y2="183"/>
				</g>
			</g>
			
				<line fill="#58595B" stroke="#FFFFFF" stroke-width="2" stroke-miterlimit="10" stroke-dasharray="2" x1="80.6" y1="104.8" x2="80.6" y2="181.8"/>
			
				<line fill="#58595B" stroke="#FFFFFF" stroke-width="2" stroke-miterlimit="10" stroke-dasharray="2" x1="104.7" y1="104.8" x2="104.7" y2="181.8"/>
			
				<line fill="#58595B" stroke="#FFFFFF" stroke-width="2" stroke-miterlimit="10" stroke-dasharray="2" x1="80.6" y1="85.3" x2="80.6" y2="100"/>
			
				<line fill="#58595B" stroke="#FFFFFF" stroke-width="2" stroke-miterlimit="10" stroke-dasharray="2" x1="104.7" y1="85.3" x2="104.7" y2="100"/>
			<line fill="#58595B" stroke="#FFFFFF" stroke-width="3" stroke-miterlimit="10" x1="86" y1="89" x2="86" y2="96.3"/>
			<line fill="#58595B" stroke="#FFFFFF" stroke-width="3" stroke-miterlimit="10" x1="90" y1="89" x2="90" y2="96.3"/>
			<line fill="#58595B" stroke="#FFFFFF" stroke-width="3" stroke-miterlimit="10" x1="94.2" y1="89" x2="94.2" y2="96.3"/>
			<line fill="#58595B" stroke="#FFFFFF" stroke-width="3" stroke-miterlimit="10" x1="98.7" y1="89" x2="98.7" y2="96.3"/>
			<line fill="#58595B" stroke="#FFFFFF" stroke-miterlimit="10" stroke-dasharray="2" x1="84.2" y1="74" x2="102.2" y2="74"/>
			<line fill="#58595B" stroke="#FFFFFF" stroke-miterlimit="10" stroke-dasharray="2" x1="83.9" y1="76.5" x2="101.9" y2="76.5"/>
			<line fill="#58595B" stroke="#FFFFFF" stroke-miterlimit="10" stroke-dasharray="2" x1="96.7" y1="62.3" x2="96.7" y2="69.2"/>
			<line fill="#58595B" stroke="#FFFFFF" stroke-miterlimit="10" stroke-dasharray="2" x1="93.2" y1="62.3" x2="93.2" y2="69.2"/>
			<line fill="#58595B" stroke="#FFFFFF" stroke-miterlimit="10" stroke-dasharray="2" x1="90" y1="62.3" x2="90" y2="69.2"/>
			<line fill="#58595B" stroke="#FFFFFF" stroke-miterlimit="10" x1="88.3" y1="49.5" x2="88.3" y2="59.1"/>
			<line fill="#58595B" stroke="#FFFFFF" stroke-miterlimit="10" x1="92.4" y1="49" x2="92.4" y2="58.6"/>
			<line fill="#58595B" stroke="#FFFFFF" stroke-miterlimit="10" x1="96.7" y1="49.5" x2="96.7" y2="58.6"/>
			<line fill="#58595B" stroke="#FFFFFF" stroke-miterlimit="10" x1="76.2" y1="151.2" x2="76.2" y2="196.4"/>
			<line fill="#58595B" stroke="#FFFFFF" stroke-miterlimit="10" x1="109.1" y1="151.2" x2="109.1" y2="201"/>
			<line fill="#58595B" stroke="#FFFFFF" stroke-miterlimit="10" x1="67.2" y1="150.2" x2="67.2" y2="201"/>
			<line fill="#58595B" stroke="#FFFFFF" stroke-miterlimit="10" x1="118.9" y1="149.8" x2="118.9" y2="198.4"/>
		</g>
		<line fill="#58595B" stroke="#FFFFFF" stroke-miterlimit="10" x1="16.4" y1="152.7" x2="53.3" y2="159.2"/>
		<line fill="#58595B" stroke="#FFFFFF" stroke-miterlimit="10" x1="52.9" y1="158.8" x2="52.9" y2="207.9"/>
		<line fill="#58595B" stroke="#FFFFFF" stroke-miterlimit="10" x1="48.2" y1="145.9" x2="48.2" y2="158.3"/>
		<line fill="#58595B" stroke="#FFFFFF" stroke-miterlimit="10" x1="20.6" y1="146.9" x2="20.6" y2="153.3"/>
		<line fill="#58595B" stroke="#FFFFFF" stroke-miterlimit="10" x1="128" y1="161.2" x2="164.6" y2="154"/>
		<line fill="#58595B" stroke="#FFFFFF" stroke-miterlimit="10" x1="128.4" y1="160.8" x2="128.4" y2="206.2"/>
		<line fill="#58595B" stroke="#FFFFFF" stroke-miterlimit="10" x1="137.1" y1="145.9" x2="137.1" y2="159.5"/>
		<line fill="#58595B" stroke="#FFFFFF" stroke-miterlimit="10" x1="52.9" y1="164.2" x2="67.2" y2="166.9"/>
		<line fill="#58595B" stroke="#FFFFFF" stroke-miterlimit="10" x1="128.4" y1="164.2" x2="118.9" y2="166.9"/>
		<line fill="#58595B" stroke="#FFFFFF" stroke-miterlimit="10" x1="16.4" y1="168.4" x2="52.9" y2="173.5"/>
		<line fill="#58595B" stroke="#FFFFFF" stroke-miterlimit="10" x1="128.4" y1="174.1" x2="162.2" y2="168.4"/>
		<line fill="#58595B" stroke="#FFFFFF" stroke-miterlimit="10" stroke-dasharray="2,2" x1="73.2" y1="154" x2="73.2" y2="196.4"/>
		<line fill="#58595B" stroke="#FFFFFF" stroke-miterlimit="10" stroke-dasharray="2,2" x1="69.4" y1="154" x2="69.4" y2="198.4"/>
		
			<line fill="#58595B" stroke="#FFFFFF" stroke-miterlimit="10" stroke-dasharray="2,2" x1="111.9" y1="154" x2="111.9" y2="202.4"/>
		
			<line fill="#58595B" stroke="#FFFFFF" stroke-miterlimit="10" stroke-dasharray="2,2" x1="115.6" y1="154" x2="115.6" y2="196.4"/>
		
			<line fill="#58595B" stroke="#FFFFFF" stroke-miterlimit="10" stroke-dasharray="4,2" x1="62.9" y1="151.2" x2="62.9" y2="164.2"/>
		
			<line fill="#58595B" stroke="#FFFFFF" stroke-miterlimit="10" stroke-dasharray="4,2" x1="60.1" y1="150.2" x2="60.1" y2="164.2"/>
		
			<line fill="#58595B" stroke="#FFFFFF" stroke-miterlimit="10" stroke-dasharray="4,2" x1="56.4" y1="149.8" x2="55.9" y2="162.7"/>
		
			<line fill="#58595B" stroke="#FFFFFF" stroke-miterlimit="10" stroke-dasharray="4,2" x1="52.9" y1="149.8" x2="52.9" y2="156.2"/>
		
			<line fill="#58595B" stroke="#FFFFFF" stroke-miterlimit="10" stroke-dasharray="4,2" x1="49.9" y1="148.7" x2="49.9" y2="156.2"/>
		
			<line fill="#58595B" stroke="#FFFFFF" stroke-miterlimit="10" stroke-dasharray="4,2" x1="122.2" y1="150.2" x2="122.2" y2="164.2"/>
		
			<line fill="#58595B" stroke="#FFFFFF" stroke-miterlimit="10" stroke-dasharray="4,2" x1="125.9" y1="150.2" x2="125.9" y2="162.7"/>
		
			<line fill="#58595B" stroke="#FFFFFF" stroke-miterlimit="10" stroke-dasharray="4,2" x1="129.4" y1="148.7" x2="129.7" y2="159.2"/>
		
			<line fill="#58595B" stroke="#FFFFFF" stroke-miterlimit="10" stroke-dasharray="4,2" x1="133.4" y1="148.7" x2="133.4" y2="157.6"/>
		<line fill="#58595B" stroke="#FFFFFF" stroke-miterlimit="10" stroke-dasharray="4,2" x1="62.9" y1="168.4" x2="62.9" y2="201"/>
		<line fill="#58595B" stroke="#FFFFFF" stroke-miterlimit="10" stroke-dasharray="4,2" x1="60.1" y1="170.9" x2="60.1" y2="201"/>
		
			<line fill="#58595B" stroke="#FFFFFF" stroke-miterlimit="10" stroke-dasharray="4,2" x1="56.4" y1="168.4" x2="56.4" y2="196.4"/>
		
			<line fill="#58595B" stroke="#FFFFFF" stroke-miterlimit="10" stroke-dasharray="4,2" x1="122.2" y1="168.4" x2="122.2" y2="196.4"/>
		
			<line fill="#58595B" stroke="#FFFFFF" stroke-miterlimit="10" stroke-dasharray="4,2" x1="125.9" y1="166.9" x2="125.9" y2="199.7"/>
	</g>
	<line fill="#58595B" stroke="#FFFFFF" stroke-miterlimit="10" x1="37.2" y1="149.5" x2="37.2" y2="156.4"/>
	<line fill="#58595B" stroke="#FFFFFF" stroke-miterlimit="10" x1="148.1" y1="149.5" x2="148.1" y2="157.2"/>
	<line fill="#58595B" stroke="#FFFFFF" stroke-miterlimit="10" x1="14.8" y1="164.2" x2="52.9" y2="169.8"/>
	<line fill="#58595B" stroke="#FFFFFF" stroke-miterlimit="10" x1="128.4" y1="170.4" x2="164.5" y2="164.2"/>
</g>
<polygon fill="#FFFFFF" stroke="#FFFFFF" stroke-miterlimit="10" points="121.6,225.2 60.3,225.2 14.6,177.2 165.4,176.6 "/>
<polygon fill="none" stroke="#000000" stroke-width="5" stroke-miterlimit="10" points="164.3,12.7 164.6,176.6 91.9,257.3 
	13.8,177.2 14.7,12.7 "/>
<text transform="matrix(1 0 0 1 56.4161 210.4074)" fill="#58595B" font-family="'GillSans-SemiBold'" font-size="35">BEO</text>
<text transform="matrix(1 0 0 1 20.5831 59.5479)" font-family="'GillSans'" font-size="22">CLEVE   LAND</text>
</svg>
